<?xml version="1.0" encoding="utf-8"?>
<svg xmlns="http://www.w3.org/2000/svg" fill="none" version="1.1" viewBox="-1 -121.304 115.386 122.304" x="-1pt" y="-121.304pt" width="115.386pt" height="122.304pt" stroke-width="0.566929" stroke-miterlimit="10.000000">
 <g transform="matrix(1.000000,0.000000,0.000000,1.000000,0.000000,-113.385827)">
  <path d="M0.328767 -0M2.07223 -1.93275C2.29141 -1.8929 3.10834 -1.7335 3.10834 -1.01619C3.10834 -0.508095 2.75965 -0.109589 1.98257 -0.109589C1.1457 -0.109589 0.787049 -0.67746 0.597758 -1.52428C0.56787 -1.6538 0.557908 -1.69365 0.458281 -1.69365C0.328767 -1.69365 0.328767 -1.62391 0.328767 -1.44458L0.328767 -0.129514C0.328767 0.0398506 0.328767 0.109589 0.438356 0.109589C0.488169 0.109589 0.498132 0.0996264 0.687422 -0.0896638C0.707347 -0.109589 0.707347 -0.129514 0.886675 -0.318804C1.32503 0.0996264 1.77335 0.109589 1.98257 0.109589C3.12827 0.109589 3.58655 -0.557908 3.58655 -1.27522C3.58655 -1.80324 3.28767 -2.10212 3.16812 -2.22167C2.83935 -2.54047 2.45081 -2.62017 2.03238 -2.69988C1.47447 -2.80946 0.806974 -2.93898 0.806974 -3.51681C0.806974 -3.8655 1.066 -4.27397 1.92279 -4.27397C3.01868 -4.27397 3.06849 -3.37733 3.08842 -3.06849C3.09838 -2.97883 3.18804 -2.97883 3.20797 -2.97883C3.33748 -2.97883 3.33748 -3.02864 3.33748 -3.21793L3.33748 -4.22416C3.33748 -4.39352 3.33748 -4.46326 3.2279 -4.46326C3.17808 -4.46326 3.15816 -4.46326 3.02864 -4.34371C2.99875 -4.30386 2.89913 -4.2142 2.85928 -4.18431C2.4807 -4.46326 2.07223 -4.46326 1.92279 -4.46326C0.707347 -4.46326 0.328767 -3.79577 0.328767 -3.23786C0.328767 -2.88917 0.488169 -2.61021 0.757161 -2.39103C1.07597 -2.132 1.35492 -2.07223 2.07223 -1.93275ZM2.07223 -1.93275M4.11457 -0M5.64882 -3.98506L7.07347 -3.98506L7.07347 -4.2939L5.64882 -4.2939L5.64882 -6.12702L5.39975 -6.12702C5.38979 -5.31009 5.09091 -4.24408 4.11457 -4.20423L4.11457 -3.98506L4.96139 -3.98506L4.96139 -1.23537C4.96139 -0.00996264 5.88792 0.109589 6.24658 0.109589C6.95392 0.109589 7.23288 -0.597758 7.23288 -1.23537L7.23288 -1.80324L6.98381 -1.80324L6.98381 -1.25529C6.98381 -0.518057 6.68493 -0.139477 6.31631 -0.139477C5.64882 -0.139477 5.64882 -1.04608 5.64882 -1.21544ZM5.64882 -1.21544M8.11955 -0M9.55417 -4.40349L8.1594 -4.2939L8.1594 -3.98506C8.80697 -3.98506 8.89664 -3.92528 8.89664 -3.43711L8.89664 -0.757161C8.89664 -0.308842 8.78705 -0.308842 8.11955 -0.308842L8.11955 -0C8.43836 -0.00996264 8.97634 -0.0298879 9.21544 -0.0298879C9.56413 -0.0298879 9.91283 -0.00996264 10.2516 -0L10.2516 -0.308842C9.59402 -0.308842 9.55417 -0.358655 9.55417 -0.747198ZM9.55417 -0.747198M9.59402 -6.13699C9.59402 -6.45579 9.34496 -6.66501 9.066 -6.66501C8.75716 -6.66501 8.53798 -6.39601 8.53798 -6.13699C8.53798 -5.868 8.75716 -5.60897 9.066 -5.60897C9.34496 -5.60897 9.59402 -5.81818 9.59402 -6.13699ZM9.59402 -6.13699M10.8792 -0M12.3138 -6.91407L10.8792 -6.80448L10.8792 -6.49564C11.5766 -6.49564 11.6563 -6.4259 11.6563 -5.93773L11.6563 -0.757161C11.6563 -0.308842 11.5467 -0.308842 10.8792 -0.308842L10.8792 -0C11.208 -0.00996264 11.736 -0.0298879 11.9851 -0.0298879C12.2341 -0.0298879 12.7223 -0.00996264 13.0909 -0L13.0909 -0.308842C12.4234 -0.308842 12.3138 -0.308842 12.3138 -0.757161ZM12.3138 -0.757161M13.6389 -0M15.0735 -6.91407L13.6389 -6.80448L13.6389 -6.49564C14.3362 -6.49564 14.4159 -6.4259 14.4159 -5.93773L14.4159 -0.757161C14.4159 -0.308842 14.3064 -0.308842 13.6389 -0.308842L13.6389 -0C13.9676 -0.00996264 14.4956 -0.0298879 14.7447 -0.0298879C14.9938 -0.0298879 15.4819 -0.00996264 15.8506 -0L15.8506 -0.308842C15.1831 -0.308842 15.0735 -0.308842 15.0735 -0.757161ZM15.0735 -0.757161" fill="black"/>
  <path d="M19.7061 -0M21.6389 -1.71357C20.7721 -1.71357 20.7721 -2.70984 20.7721 -2.93898C20.7721 -3.20797 20.7821 -3.52677 20.9315 -3.77584C21.0112 -3.89539 21.2404 -4.17435 21.6389 -4.17435C22.5056 -4.17435 22.5056 -3.17808 22.5056 -2.94894C22.5056 -2.67995 22.4957 -2.36115 22.3462 -2.11208C22.2665 -1.99253 22.0374 -1.71357 21.6389 -1.71357ZM21.6389 -1.71357M20.4832 -1.32503C20.4832 -1.36488 20.4832 -1.59402 20.6526 -1.79328C21.0411 -1.51432 21.4496 -1.48443 21.6389 -1.48443C22.5654 -1.48443 23.2528 -2.17186 23.2528 -2.93898C23.2528 -3.3076 23.0934 -3.67621 22.8444 -3.90535C23.203 -4.24408 23.5617 -4.2939 23.741 -4.2939C23.7609 -4.2939 23.8107 -4.2939 23.8406 -4.28394C23.731 -4.24408 23.6812 -4.1345 23.6812 -4.01494C23.6812 -3.84558 23.8107 -3.72603 23.9701 -3.72603C24.0698 -3.72603 24.2591 -3.79577 24.2591 -4.02491C24.2591 -4.19427 24.1395 -4.51308 23.751 -4.51308C23.5517 -4.51308 23.1134 -4.4533 22.6949 -4.04483C22.2765 -4.3736 21.8581 -4.40349 21.6389 -4.40349C20.7124 -4.40349 20.0249 -3.71606 20.0249 -2.94894C20.0249 -2.51059 20.2441 -2.132 20.4932 -1.92279C20.3637 -1.77335 20.1843 -1.44458 20.1843 -1.09589C20.1843 -0.787049 20.3139 -0.408468 20.6227 -0.209215C20.0249 -0.0398506 19.7061 0.388543 19.7061 0.787049C19.7061 1.50436 20.6924 2.0523 21.9079 2.0523C23.0835 2.0523 24.1196 1.54421 24.1196 0.767123C24.1196 0.418431 23.9801 -0.0896638 23.472 -0.368618C22.944 -0.647572 22.3662 -0.647572 21.7584 -0.647572C21.5094 -0.647572 21.081 -0.647572 21.0112 -0.657534C20.6924 -0.697385 20.4832 -1.00623 20.4832 -1.32503ZM20.4832 -1.32503M21.9178 1.82316C20.9116 1.82316 20.2242 1.31507 20.2242 0.787049C20.2242 0.328767 20.6028 -0.0398506 21.0411 -0.0697385L21.6289 -0.0697385C22.4857 -0.0697385 23.6015 -0.0697385 23.6015 0.787049C23.6015 1.32503 22.8942 1.82316 21.9178 1.82316ZM21.9178 1.82316M24.6875 -0M29.1009 -2.132C29.1009 -3.40722 28.1046 -4.46326 26.8992 -4.46326C25.6538 -4.46326 24.6875 -3.37733 24.6875 -2.132C24.6875 -0.846824 25.7236 0.109589 26.8892 0.109589C28.0947 0.109589 29.1009 -0.86675 29.1009 -2.132ZM29.1009 -2.132M26.8992 -0.139477C26.4708 -0.139477 26.0324 -0.348692 25.7634 -0.806974C25.5144 -1.24533 25.5144 -1.85305 25.5144 -2.21171C25.5144 -2.60025 25.5144 -3.13823 25.7535 -3.57659C26.0224 -4.03487 26.4907 -4.24408 26.8892 -4.24408C27.3276 -4.24408 27.7559 -4.02491 28.015 -3.59651C28.274 -3.16812 28.274 -2.59029 28.274 -2.21171C28.274 -1.85305 28.274 -1.31507 28.0548 -0.876712C27.8356 -0.428394 27.3973 -0.139477 26.8992 -0.139477ZM26.8992 -0.139477" fill="black"/>
  <path d="M29.9456 -0M34.359 -2.132C34.359 -3.40722 33.3627 -4.46326 32.1573 -4.46326C30.9119 -4.46326 29.9456 -3.37733 29.9456 -2.132C29.9456 -0.846824 30.9817 0.109589 32.1473 0.109589C33.3528 0.109589 34.359 -0.86675 34.359 -2.132ZM34.359 -2.132M32.1573 -0.139477C31.7289 -0.139477 31.2905 -0.348692 31.0215 -0.806974C30.7725 -1.24533 30.7725 -1.85305 30.7725 -2.21171C30.7725 -2.60025 30.7725 -3.13823 31.0116 -3.57659C31.2805 -4.03487 31.7488 -4.24408 32.1473 -4.24408C32.5857 -4.24408 33.014 -4.02491 33.2731 -3.59651C33.5321 -3.16812 33.5321 -2.59029 33.5321 -2.21171C33.5321 -1.85305 33.5321 -1.31507 33.3129 -0.876712C33.0937 -0.428394 32.6554 -0.139477 32.1573 -0.139477ZM32.1573 -0.139477" fill="black"/>
  <path d="M35.2634 -0M38.7105 -0.547945L38.7105 0.109589L40.175 -0L40.175 -0.308842C39.4776 -0.308842 39.3979 -0.37858 39.3979 -0.86675L39.3979 -6.91407L37.9633 -6.80448L37.9633 -6.49564C38.6607 -6.49564 38.7404 -6.4259 38.7404 -5.93773L38.7404 -3.7858C38.4515 -4.14446 38.0231 -4.40349 37.4851 -4.40349C36.3095 -4.40349 35.2634 -3.42715 35.2634 -2.14197C35.2634 -0.876712 36.2397 0.109589 37.3755 0.109589C38.0131 0.109589 38.4614 -0.229141 38.7105 -0.547945ZM38.7105 -0.547945M38.7105 -3.21793L38.7105 -1.17559C38.7105 -0.996264 38.7105 -0.976339 38.6009 -0.806974C38.302 -0.328767 37.8537 -0.109589 37.4253 -0.109589C36.977 -0.109589 36.6183 -0.368618 36.3792 -0.747198C36.1202 -1.15567 36.0903 -1.72354 36.0903 -2.132C36.0903 -2.50062 36.1102 -3.09838 36.3992 -3.5467C36.6084 -3.85554 36.9869 -4.18431 37.5249 -4.18431C37.8736 -4.18431 38.2921 -4.03487 38.6009 -3.58655C38.7105 -3.41719 38.7105 -3.39726 38.7105 -3.21793ZM38.7105 -3.21793M41.0119 -0M42.7952 -2.4807C42.7952 -3.73599 43.7615 -4.44334 44.1102 -4.70237C44.3792 -4.90162 44.5884 -5.26027 44.5884 -5.6787C44.5884 -6.25654 44.1899 -7.02366 42.7055 -7.02366C41.6295 -7.02366 41.0119 -6.3462 41.0119 -5.69863C41.0119 -5.3599 41.241 -5.22042 41.4701 -5.22042C41.7491 -5.22042 41.9284 -5.41968 41.9284 -5.6787C41.9284 -6.12702 41.51 -6.12702 41.3705 -6.12702C41.6794 -6.65504 42.2572 -6.80448 42.6756 -6.80448C43.7615 -6.80448 43.7615 -6.12702 43.7615 -5.73848C43.7615 -5.15068 43.6021 -4.97136 43.4228 -4.79203C42.7653 -4.07472 42.5461 -3.15816 42.5461 -2.55044L42.5461 -2.10212C42.5461 -1.92279 42.5461 -1.86301 42.6657 -1.86301C42.7952 -1.86301 42.7952 -1.95268 42.7952 -2.132ZM42.7952 -2.132M43.1937 -0.52802C43.1937 -0.816936 42.9546 -1.05604 42.6657 -1.05604C42.3767 -1.05604 42.1376 -0.816936 42.1376 -0.52802C42.1376 -0.239103 42.3767 -0 42.6657 -0C42.9546 -0 43.1937 -0.239103 43.1937 -0.52802ZM43.1937 -0.52802" fill="black"/>
 </g>
 <g stroke-width="0.283465">
  <path d="M0 -56.6929L113.386 -56.6929" stroke="black"/>
 </g>
 <g stroke-width="0.283465">
  <path d="M56.6929 -113.386L56.6929 -0" stroke="black"/>
 </g>
</svg>
