<?xml version="1.0" encoding="utf-8"?>
<svg xmlns="http://www.w3.org/2000/svg" fill="none" version="1.1" viewBox="-1 -114.386 115.386 115.386" x="-1pt" y="-114.386pt" width="115.386pt" height="115.386pt" stroke-width="0.566929" stroke-miterlimit="10.000000">
 <g stroke-width="0.283465">
  <path d="M56.6929 -0L56.6929 -113.386" stroke="black"/>
 </g>
 <g stroke-width="0.283465">
  <path d="M0 -56.6929L113.386 -56.6929" stroke="black"/>
 </g>
 <g transform="matrix(1.000000,0.000000,0.000000,1.000000,0.000000,-0.000000)">
  <path d="M0.278954 -0M1.66376 -3.3076L1.66376 -4.40349L0.278954 -4.2939L0.278954 -3.98506C0.976339 -3.98506 1.05604 -3.91532 1.05604 -3.42715L1.05604 -0.757161C1.05604 -0.308842 0.946451 -0.308842 0.278954 -0.308842L0.278954 -0C0.667497 -0.00996264 1.13574 -0.0298879 1.41469 -0.0298879C1.8132 -0.0298879 2.28144 -0.0298879 2.67995 -0L2.67995 -0.308842L2.47073 -0.308842C1.7335 -0.308842 1.71357 -0.418431 1.71357 -0.777086L1.71357 -2.31133C1.71357 -3.29763 2.132 -4.18431 2.88917 -4.18431C2.9589 -4.18431 2.97883 -4.18431 2.99875 -4.17435C2.96887 -4.16438 2.76961 -4.04483 2.76961 -3.7858C2.76961 -3.50685 2.97883 -3.35741 3.19801 -3.35741C3.37733 -3.35741 3.6264 -3.47696 3.6264 -3.79577C3.6264 -4.11457 3.31756 -4.40349 2.88917 -4.40349C2.16189 -4.40349 1.80324 -3.73599 1.66376 -3.3076ZM1.66376 -3.3076M4.17435 -0M5.01121 -2.51059C5.07098 -3.99502 5.90785 -4.24408 6.24658 -4.24408C7.27273 -4.24408 7.37235 -2.89913 7.37235 -2.51059ZM7.37235 -2.51059M5.00125 -2.30137L7.78082 -2.30137C8 -2.30137 8.02989 -2.30137 8.02989 -2.51059C8.02989 -3.49689 7.49191 -4.46326 6.24658 -4.46326C5.09091 -4.46326 4.17435 -3.43711 4.17435 -2.19178C4.17435 -0.856787 5.22042 0.109589 6.36613 0.109589C7.58157 0.109589 8.02989 -0.996264 8.02989 -1.18555C8.02989 -1.28518 7.95019 -1.30511 7.90037 -1.30511C7.81071 -1.30511 7.79078 -1.24533 7.77086 -1.16563C7.42217 -0.139477 6.52553 -0.139477 6.4259 -0.139477C5.92777 -0.139477 5.52927 -0.438356 5.30012 -0.806974C5.00125 -1.28518 5.00125 -1.94271 5.00125 -2.30137ZM5.00125 -2.30137M8.73724 -0M11.6364 -0.757161C11.6762 -0.358655 11.9452 0.0597758 12.4134 0.0597758C12.6227 0.0597758 13.2304 -0.0797011 13.2304 -0.886675L13.2304 -1.44458L12.9813 -1.44458L12.9813 -0.886675C12.9813 -0.308842 12.7323 -0.249066 12.6227 -0.249066C12.2939 -0.249066 12.254 -0.697385 12.254 -0.747198L12.254 -2.73973C12.254 -3.15816 12.254 -3.5467 11.8954 -3.91532C11.5068 -4.30386 11.0087 -4.46326 10.5305 -4.46326C9.71357 -4.46326 9.02615 -3.99502 9.02615 -3.33748C9.02615 -3.03861 9.2254 -2.86924 9.48443 -2.86924C9.76339 -2.86924 9.94271 -3.06849 9.94271 -3.32752C9.94271 -3.44707 9.8929 -3.77584 9.43462 -3.7858C9.70361 -4.1345 10.1918 -4.24408 10.5106 -4.24408C10.9988 -4.24408 11.5666 -3.85554 11.5666 -2.96887L11.5666 -2.60025C11.0585 -2.57036 10.3611 -2.54047 9.7335 -2.24159C8.9863 -1.90286 8.73724 -1.38481 8.73724 -0.946451C8.73724 -0.139477 9.70361 0.109589 10.3313 0.109589C10.9888 0.109589 11.4471 -0.288917 11.6364 -0.757161ZM11.6364 -0.757161M11.5666 -2.39103L11.5666 -1.39477C11.5666 -0.448319 10.8493 -0.109589 10.401 -0.109589C9.91283 -0.109589 9.50436 -0.458281 9.50436 -0.956413C9.50436 -1.50436 9.92279 -2.33126 11.5666 -2.39103ZM11.5666 -2.39103M13.6289 -0M15.0635 -6.91407L13.6289 -6.80448L13.6289 -6.49564C14.3263 -6.49564 14.406 -6.4259 14.406 -5.93773L14.406 -0.757161C14.406 -0.308842 14.2964 -0.308842 13.6289 -0.308842L13.6289 -0C13.9577 -0.00996264 14.4857 -0.0298879 14.7347 -0.0298879C14.9838 -0.0298879 15.472 -0.00996264 15.8406 -0L15.8406 -0.308842C15.1731 -0.308842 15.0635 -0.308842 15.0635 -0.757161ZM15.0635 -0.757161M16.6177 -0M18.401 -2.4807C18.401 -3.73599 19.3674 -4.44334 19.7161 -4.70237C19.9851 -4.90162 20.1943 -5.26027 20.1943 -5.6787C20.1943 -6.25654 19.7958 -7.02366 18.3113 -7.02366C17.2354 -7.02366 16.6177 -6.3462 16.6177 -5.69863C16.6177 -5.3599 16.8468 -5.22042 17.076 -5.22042C17.3549 -5.22042 17.5342 -5.41968 17.5342 -5.6787C17.5342 -6.12702 17.1158 -6.12702 16.9763 -6.12702C17.2852 -6.65504 17.863 -6.80448 18.2814 -6.80448C19.3674 -6.80448 19.3674 -6.12702 19.3674 -5.73848C19.3674 -5.15068 19.208 -4.97136 19.0286 -4.79203C18.3711 -4.07472 18.1519 -3.15816 18.1519 -2.55044L18.1519 -2.10212C18.1519 -1.92279 18.1519 -1.86301 18.2715 -1.86301C18.401 -1.86301 18.401 -1.95268 18.401 -2.132ZM18.401 -2.132M18.7995 -0.52802C18.7995 -0.816936 18.5604 -1.05604 18.2715 -1.05604C17.9826 -1.05604 17.7435 -0.816936 17.7435 -0.52802C17.7435 -0.239103 17.9826 -0 18.2715 -0C18.5604 -0 18.7995 -0.239103 18.7995 -0.52802ZM18.7995 -0.52802" fill="black"/>
 </g>
</svg>
