<?xml version="1.0" encoding="utf-8"?>
<svg xmlns="http://www.w3.org/2000/svg" fill="none" version="1.1" viewBox="-1 -114.386 115.386 115.386" x="-1pt" y="-114.386pt" width="115.386pt" height="115.386pt" stroke-width="0.566929" stroke-miterlimit="10.000000">
 <g stroke-width="0.283465">
  <path d="M56.6929 -0L56.6929 -113.386" stroke="black"/>
 </g>
 <g stroke-width="0.283465">
  <path d="M0 -56.6929L113.386 -56.6929" stroke="black"/>
 </g>
 <g transform="matrix(1.000000,0.000000,0.000000,1.000000,0.000000,-0.000000)">
  <path d="M0.278954 -0M1.66376 -3.3076L1.66376 -4.40349L0.278954 -4.2939L0.278954 -3.98506C0.976339 -3.98506 1.05604 -3.91532 1.05604 -3.42715L1.05604 -0.757161C1.05604 -0.308842 0.946451 -0.308842 0.278954 -0.308842L0.278954 -0C0.667497 -0.00996264 1.13574 -0.0298879 1.41469 -0.0298879C1.8132 -0.0298879 2.28144 -0.0298879 2.67995 -0L2.67995 -0.308842L2.47073 -0.308842C1.7335 -0.308842 1.71357 -0.418431 1.71357 -0.777086L1.71357 -2.31133C1.71357 -3.29763 2.132 -4.18431 2.88917 -4.18431C2.9589 -4.18431 2.97883 -4.18431 2.99875 -4.17435C2.96887 -4.16438 2.76961 -4.04483 2.76961 -3.7858C2.76961 -3.50685 2.97883 -3.35741 3.19801 -3.35741C3.37733 -3.35741 3.6264 -3.47696 3.6264 -3.79577C3.6264 -4.11457 3.31756 -4.40349 2.88917 -4.40349C2.16189 -4.40349 1.80324 -3.73599 1.66376 -3.3076ZM1.66376 -3.3076M4.17435 -0M5.01121 -2.51059C5.07098 -3.99502 5.90785 -4.24408 6.24658 -4.24408C7.27273 -4.24408 7.37235 -2.89913 7.37235 -2.51059ZM7.37235 -2.51059M5.00125 -2.30137L7.78082 -2.30137C8 -2.30137 8.02989 -2.30137 8.02989 -2.51059C8.02989 -3.49689 7.49191 -4.46326 6.24658 -4.46326C5.09091 -4.46326 4.17435 -3.43711 4.17435 -2.19178C4.17435 -0.856787 5.22042 0.109589 6.36613 0.109589C7.58157 0.109589 8.02989 -0.996264 8.02989 -1.18555C8.02989 -1.28518 7.95019 -1.30511 7.90037 -1.30511C7.81071 -1.30511 7.79078 -1.24533 7.77086 -1.16563C7.42217 -0.139477 6.52553 -0.139477 6.4259 -0.139477C5.92777 -0.139477 5.52927 -0.438356 5.30012 -0.806974C5.00125 -1.28518 5.00125 -1.94271 5.00125 -2.30137ZM5.00125 -2.30137M8.73724 -0M11.6364 -0.757161C11.6762 -0.358655 11.9452 0.0597758 12.4134 0.0597758C12.6227 0.0597758 13.2304 -0.0797011 13.2304 -0.886675L13.2304 -1.44458L12.9813 -1.44458L12.9813 -0.886675C12.9813 -0.308842 12.7323 -0.249066 12.6227 -0.249066C12.2939 -0.249066 12.254 -0.697385 12.254 -0.747198L12.254 -2.73973C12.254 -3.15816 12.254 -3.5467 11.8954 -3.91532C11.5068 -4.30386 11.0087 -4.46326 10.5305 -4.46326C9.71357 -4.46326 9.02615 -3.99502 9.02615 -3.33748C9.02615 -3.03861 9.2254 -2.86924 9.48443 -2.86924C9.76339 -2.86924 9.94271 -3.06849 9.94271 -3.32752C9.94271 -3.44707 9.8929 -3.77584 9.43462 -3.7858C9.70361 -4.1345 10.1918 -4.24408 10.5106 -4.24408C10.9988 -4.24408 11.5666 -3.85554 11.5666 -2.96887L11.5666 -2.60025C11.0585 -2.57036 10.3611 -2.54047 9.7335 -2.24159C8.9863 -1.90286 8.73724 -1.38481 8.73724 -0.946451C8.73724 -0.139477 9.70361 0.109589 10.3313 0.109589C10.9888 0.109589 11.4471 -0.288917 11.6364 -0.757161ZM11.6364 -0.757161M11.5666 -2.39103L11.5666 -1.39477C11.5666 -0.448319 10.8493 -0.109589 10.401 -0.109589C9.91283 -0.109589 9.50436 -0.458281 9.50436 -0.956413C9.50436 -1.50436 9.92279 -2.33126 11.5666 -2.39103ZM11.5666 -2.39103M13.6289 -0M15.0635 -6.91407L13.6289 -6.80448L13.6289 -6.49564C14.3263 -6.49564 14.406 -6.4259 14.406 -5.93773L14.406 -0.757161C14.406 -0.308842 14.2964 -0.308842 13.6289 -0.308842L13.6289 -0C13.9577 -0.00996264 14.4857 -0.0298879 14.7347 -0.0298879C14.9838 -0.0298879 15.472 -0.00996264 15.8406 -0L15.8406 -0.308842C15.1731 -0.308842 15.0635 -0.308842 15.0635 -0.757161ZM15.0635 -0.757161M16.3885 -0M18.132 -1.93275C18.3512 -1.8929 19.1681 -1.7335 19.1681 -1.01619C19.1681 -0.508095 18.8194 -0.109589 18.0423 -0.109589C17.2055 -0.109589 16.8468 -0.67746 16.6575 -1.52428C16.6276 -1.6538 16.6177 -1.69365 16.5181 -1.69365C16.3885 -1.69365 16.3885 -1.62391 16.3885 -1.44458L16.3885 -0.129514C16.3885 0.0398506 16.3885 0.109589 16.4981 0.109589C16.5479 0.109589 16.5579 0.0996264 16.7472 -0.0896638C16.7671 -0.109589 16.7671 -0.129514 16.9465 -0.318804C17.3848 0.0996264 17.8331 0.109589 18.0423 0.109589C19.188 0.109589 19.6463 -0.557908 19.6463 -1.27522C19.6463 -1.80324 19.3474 -2.10212 19.2279 -2.22167C18.8991 -2.54047 18.5106 -2.62017 18.0922 -2.69988C17.5342 -2.80946 16.8667 -2.93898 16.8667 -3.51681C16.8667 -3.8655 17.1258 -4.27397 17.9826 -4.27397C19.0785 -4.27397 19.1283 -3.37733 19.1482 -3.06849C19.1582 -2.97883 19.2478 -2.97883 19.2677 -2.97883C19.3973 -2.97883 19.3973 -3.02864 19.3973 -3.21793L19.3973 -4.22416C19.3973 -4.39352 19.3973 -4.46326 19.2877 -4.46326C19.2379 -4.46326 19.2179 -4.46326 19.0884 -4.34371C19.0585 -4.30386 18.9589 -4.2142 18.9191 -4.18431C18.5405 -4.46326 18.132 -4.46326 17.9826 -4.46326C16.7671 -4.46326 16.3885 -3.79577 16.3885 -3.23786C16.3885 -2.88917 16.5479 -2.61021 16.8169 -2.39103C17.1357 -2.132 17.4147 -2.07223 18.132 -1.93275ZM18.132 -1.93275M20.543 -0M22.3263 -2.4807C22.3263 -3.73599 23.2927 -4.44334 23.6413 -4.70237C23.9103 -4.90162 24.1196 -5.26027 24.1196 -5.6787C24.1196 -6.25654 23.721 -7.02366 22.2366 -7.02366C21.1606 -7.02366 20.543 -6.3462 20.543 -5.69863C20.543 -5.3599 20.7721 -5.22042 21.0012 -5.22042C21.2802 -5.22042 21.4595 -5.41968 21.4595 -5.6787C21.4595 -6.12702 21.0411 -6.12702 20.9016 -6.12702C21.2105 -6.65504 21.7883 -6.80448 22.2067 -6.80448C23.2927 -6.80448 23.2927 -6.12702 23.2927 -5.73848C23.2927 -5.15068 23.1333 -4.97136 22.9539 -4.79203C22.2964 -4.07472 22.0772 -3.15816 22.0772 -2.55044L22.0772 -2.10212C22.0772 -1.92279 22.0772 -1.86301 22.1968 -1.86301C22.3263 -1.86301 22.3263 -1.95268 22.3263 -2.132ZM22.3263 -2.132M22.7248 -0.52802C22.7248 -0.816936 22.4857 -1.05604 22.1968 -1.05604C21.9078 -1.05604 21.6687 -0.816936 21.6687 -0.52802C21.6687 -0.239103 21.9078 -0 22.1968 -0C22.4857 -0 22.7248 -0.239103 22.7248 -0.52802ZM22.7248 -0.52802" fill="black"/>
 </g>
</svg>
