<?xml version="1.0" encoding="utf-8"?>
<svg xmlns="http://www.w3.org/2000/svg" fill="none" version="1.1" viewBox="22.5568 -63.8207 52.5708 45.0616" x="22.5568pt" y="-63.8207pt" width="52.5708pt" height="45.0616pt" stroke-width="0.566929" stroke-miterlimit="10.000000">
 <g stroke-width="0.283465">
  <path d="M48.1055 -19.7591L23.5568 -62.2788" stroke="black"/>
 </g>
 <g stroke-width="0.283465">
  <path d="M72.6543 -62.2788L48.1055 -19.7591" stroke="black"/>
 </g>
 <g transform="matrix(1.000000,0.000000,0.000000,1.000000,56.692913,-56.692913)">
  <path d="M0.18929 -0M1.72354 -3.98506L3.14819 -3.98506L3.14819 -4.2939L1.72354 -4.2939L1.72354 -6.12702L1.47447 -6.12702C1.46451 -5.31009 1.16563 -4.24408 0.18929 -4.20423L0.18929 -3.98506L1.03611 -3.98506L1.03611 -1.23537C1.03611 -0.00996264 1.96264 0.109589 2.3213 0.109589C3.02864 0.109589 3.3076 -0.597758 3.3076 -1.23537L3.3076 -1.80324L3.05853 -1.80324L3.05853 -1.25529C3.05853 -0.518057 2.75965 -0.139477 2.39103 -0.139477C1.72354 -0.139477 1.72354 -1.04608 1.72354 -1.21544ZM1.72354 -1.21544M4.14446 -0M4.98132 -2.51059C5.0411 -3.99502 5.87796 -4.24408 6.21669 -4.24408C7.24284 -4.24408 7.34247 -2.89913 7.34247 -2.51059ZM7.34247 -2.51059M4.97136 -2.30137L7.75093 -2.30137C7.97011 -2.30137 8 -2.30137 8 -2.51059C8 -3.49689 7.46202 -4.46326 6.21669 -4.46326C5.06102 -4.46326 4.14446 -3.43711 4.14446 -2.19178C4.14446 -0.856787 5.19054 0.109589 6.33624 0.109589C7.55168 0.109589 8 -0.996264 8 -1.18555C8 -1.28518 7.9203 -1.30511 7.87049 -1.30511C7.78082 -1.30511 7.7609 -1.24533 7.74097 -1.16563C7.39228 -0.139477 6.49564 -0.139477 6.39601 -0.139477C5.89788 -0.139477 5.49938 -0.438356 5.27024 -0.806974C4.97136 -1.28518 4.97136 -1.94271 4.97136 -2.30137ZM4.97136 -2.30137M8.40847 -0M11.1482 -2.34122C11.4471 -2.7198 11.8257 -3.20797 12.0648 -3.467C12.3736 -3.82565 12.7821 -3.97509 13.2503 -3.98506L13.2503 -4.2939C12.9913 -4.27397 12.6924 -4.26401 12.4334 -4.26401C12.1345 -4.26401 11.6065 -4.28394 11.477 -4.2939L11.477 -3.98506C11.6862 -3.96513 11.7659 -3.83562 11.7659 -3.67621C11.7659 -3.51681 11.6663 -3.3873 11.6164 -3.32752L10.9988 -2.55044L10.2217 -3.55666C10.132 -3.65629 10.132 -3.67621 10.132 -3.73599C10.132 -3.88543 10.2814 -3.97509 10.4807 -3.98506L10.4807 -4.2939C10.2217 -4.28394 9.56413 -4.26401 9.40473 -4.26401C9.19552 -4.26401 8.72727 -4.27397 8.45828 -4.2939L8.45828 -3.98506C9.15567 -3.98506 9.16563 -3.97509 9.63387 -3.37733L10.6202 -2.09215L9.68369 -0.9066C9.20548 -0.328767 8.61768 -0.308842 8.40847 -0.308842L8.40847 -0C8.6675 -0.0199253 8.97634 -0.0298879 9.23537 -0.0298879C9.52428 -0.0298879 9.94271 -0.00996264 10.1818 -0L10.1818 -0.308842C9.96264 -0.33873 9.8929 -0.468244 9.8929 -0.617684C9.8929 -0.836862 10.1818 -1.16563 10.7895 -1.88294L11.5467 -0.886675C11.6264 -0.777086 11.7559 -0.617684 11.7559 -0.557908C11.7559 -0.468244 11.6663 -0.318804 11.3973 -0.308842L11.3973 -0C11.6961 -0.00996264 12.254 -0.0298879 12.4732 -0.0298879C12.7422 -0.0298879 13.1308 -0.0199253 13.4296 -0L13.4296 -0.308842C12.8917 -0.308842 12.7123 -0.328767 12.4832 -0.617684ZM12.4832 -0.617684M13.7285 -0M15.2628 -3.98506L16.6874 -3.98506L16.6874 -4.2939L15.2628 -4.2939L15.2628 -6.12702L15.0137 -6.12702C15.0037 -5.31009 14.7049 -4.24408 13.7285 -4.20423L13.7285 -3.98506L14.5753 -3.98506L14.5753 -1.23537C14.5753 -0.00996264 15.5019 0.109589 15.8605 0.109589C16.5679 0.109589 16.8468 -0.597758 16.8468 -1.23537L16.8468 -1.80324L16.5978 -1.80324L16.5978 -1.25529C16.5978 -0.518057 16.2989 -0.139477 15.9303 -0.139477C15.2628 -0.139477 15.2628 -1.04608 15.2628 -1.21544ZM15.2628 -1.21544" fill="black"/>
 </g>
</svg>
