<?xml version="1.0" encoding="utf-8"?>
<svg xmlns="http://www.w3.org/2000/svg" fill="none" version="1.1" viewBox="-1 -85.4653 78.8133 63.8955" x="-1pt" y="-85.4653pt" width="78.8133pt" height="63.8955pt" stroke-width="0.566929" stroke-miterlimit="10.000000">
 <g stroke-width="0.283465">
  <path d="M15.5392 -25.9147L64.6367 -25.9147" stroke="black"/>
 </g>
 <g stroke-width="0.283465">
  <path d="M64.6367 -25.9147L40.0879 -68.4344" stroke="black"/>
 </g>
 <g stroke-width="0.283465">
  <path d="M40.0879 -68.4344L15.5392 -25.9147" stroke="black"/>
 </g>
 <g transform="matrix(1.000000,0.000000,0.000000,1.000000,0.000000,-80.175887)">
  <path d="M0.318804 -0M3.89539 -0.787049L3.89539 0.109589L5.33001 -0L5.33001 -0.308842C4.63263 -0.308842 4.55293 -0.37858 4.55293 -0.86675L4.55293 -4.40349L3.08842 -4.2939L3.08842 -3.98506C3.7858 -3.98506 3.8655 -3.91532 3.8655 -3.42715L3.8655 -1.6538C3.8655 -0.787049 3.3873 -0.109589 2.66002 -0.109589C1.82316 -0.109589 1.78331 -0.577833 1.78331 -1.09589L1.78331 -4.40349L0.318804 -4.2939L0.318804 -3.98506C1.09589 -3.98506 1.09589 -3.95517 1.09589 -3.06849L1.09589 -1.5741C1.09589 -0.797011 1.09589 0.109589 2.61021 0.109589C3.16812 0.109589 3.60648 -0.169365 3.89539 -0.787049ZM3.89539 -0.787049" fill="black"/>
 </g>
 <g transform="matrix(1.000000,0.000000,0.000000,1.000000,40.087944,-68.434400)">
  <path d="M3.64964 -0M5.08426 -6.91407L3.64964 -6.80448L3.64964 -6.49564C4.34703 -6.49564 4.42673 -6.4259 4.42673 -5.93773L4.42673 -0.757161C4.42673 -0.308842 4.31714 -0.308842 3.64964 -0.308842L3.64964 -0C3.97841 -0.00996264 4.50643 -0.0298879 4.7555 -0.0298879C5.00456 -0.0298879 5.49273 -0.00996264 5.86135 -0L5.86135 -0.308842C5.19385 -0.308842 5.08426 -0.308842 5.08426 -0.757161ZM5.08426 -0.757161" fill="black"/>
 </g>
 <g transform="matrix(1.000000,0.000000,0.000000,1.000000,15.539192,-25.914715)">
  <path d="M3.59983 -0M4.98464 -3.3076L4.98464 -4.40349L3.59983 -4.2939L3.59983 -3.98506C4.29721 -3.98506 4.37691 -3.91532 4.37691 -3.42715L4.37691 -0.757161C4.37691 -0.308842 4.26733 -0.308842 3.59983 -0.308842L3.59983 -0C3.98837 -0.00996264 4.45662 -0.0298879 4.73557 -0.0298879C5.13408 -0.0298879 5.60232 -0.0298879 6.00083 -0L6.00083 -0.308842L5.79161 -0.308842C5.05437 -0.308842 5.03445 -0.418431 5.03445 -0.777086L5.03445 -2.31133C5.03445 -3.29763 5.45288 -4.18431 6.21004 -4.18431C6.27978 -4.18431 6.2997 -4.18431 6.31963 -4.17435C6.28974 -4.16438 6.09049 -4.04483 6.09049 -3.7858C6.09049 -3.50685 6.2997 -3.35741 6.51888 -3.35741C6.69821 -3.35741 6.94728 -3.47696 6.94728 -3.79577C6.94728 -4.11457 6.63843 -4.40349 6.21004 -4.40349C5.48277 -4.40349 5.12411 -3.73599 4.98464 -3.3076ZM4.98464 -3.3076" fill="black"/>
 </g>
 <g transform="matrix(1.000000,0.000000,0.000000,1.000000,64.636695,-25.914715)">
  <path d="M3.43046 -0M6.07056 -1.86301L6.07056 -2.44085L3.43046 -2.44085L3.43046 -1.86301ZM3.43046 -1.86301M6.95724 -0M10.5338 -0.787049L10.5338 0.109589L11.9684 -0L11.9684 -0.308842C11.2711 -0.308842 11.1914 -0.37858 11.1914 -0.86675L11.1914 -4.40349L9.72685 -4.2939L9.72685 -3.98506C10.4242 -3.98506 10.5039 -3.91532 10.5039 -3.42715L10.5039 -1.6538C10.5039 -0.787049 10.0257 -0.109589 9.29846 -0.109589C8.4616 -0.109589 8.42175 -0.577833 8.42175 -1.09589L8.42175 -4.40349L6.95724 -4.2939L6.95724 -3.98506C7.73432 -3.98506 7.73432 -3.95517 7.73432 -3.06849L7.73432 -1.5741C7.73432 -0.797011 7.73432 0.109589 9.24865 0.109589C9.80655 0.109589 10.2449 -0.169365 10.5338 -0.787049ZM10.5338 -0.787049" fill="black"/>
 </g>
 <g transform="matrix(1.000000,0.000000,0.000000,1.000000,40.087944,-22.569833)">
  <path d="M3.43046 -0M6.07056 -1.86301L6.07056 -2.44085L3.43046 -2.44085L3.43046 -1.86301ZM3.43046 -1.86301M6.9672 -0M8.40182 -6.91407L6.9672 -6.80448L6.9672 -6.49564C7.66459 -6.49564 7.74429 -6.4259 7.74429 -5.93773L7.74429 -0.757161C7.74429 -0.308842 7.6347 -0.308842 6.9672 -0.308842L6.9672 -0C7.29597 -0.00996264 7.82399 -0.0298879 8.07305 -0.0298879C8.32212 -0.0298879 8.81029 -0.00996264 9.17891 -0L9.17891 -0.308842C8.51141 -0.308842 8.40182 -0.308842 8.40182 -0.757161ZM8.40182 -0.757161" fill="black"/>
 </g>
 <g transform="matrix(1.000000,0.000000,0.000000,1.000000,55.259072,-48.846999)">
  <path d="M3.43046 -0M6.07056 -1.86301L6.07056 -2.44085L3.43046 -2.44085L3.43046 -1.86301ZM3.43046 -1.86301M6.91739 -0M8.3022 -3.3076L8.3022 -4.40349L6.91739 -4.2939L6.91739 -3.98506C7.61477 -3.98506 7.69447 -3.91532 7.69447 -3.42715L7.69447 -0.757161C7.69447 -0.308842 7.58488 -0.308842 6.91739 -0.308842L6.91739 -0C7.30593 -0.00996264 7.77418 -0.0298879 8.05313 -0.0298879C8.45163 -0.0298879 8.91988 -0.0298879 9.31838 -0L9.31838 -0.308842L9.10917 -0.308842C8.37193 -0.308842 8.35201 -0.418431 8.35201 -0.777086L8.35201 -2.31133C8.35201 -3.29763 8.77044 -4.18431 9.5276 -4.18431C9.59734 -4.18431 9.61726 -4.18431 9.63719 -4.17435C9.6073 -4.16438 9.40805 -4.04483 9.40805 -3.7858C9.40805 -3.50685 9.61726 -3.35741 9.83644 -3.35741C10.0158 -3.35741 10.2648 -3.47696 10.2648 -3.79577C10.2648 -4.11457 9.95599 -4.40349 9.5276 -4.40349C8.80033 -4.40349 8.44167 -3.73599 8.3022 -3.3076ZM8.3022 -3.3076" fill="black"/>
 </g>
</svg>
