<?xml version="1.0" encoding="utf-8"?>
<svg xmlns="http://www.w3.org/2000/svg" fill="none" version="1.1" viewBox="22.5568 -104.13 100.696 85.3705" x="22.5568pt" y="-104.13pt" width="100.696pt" height="85.3705pt" stroke-width="0.566929" stroke-miterlimit="10.000000">
 <g stroke-width="0.283465">
  <path d="M48.1055 -19.7591L23.5568 -62.2788" stroke="black"/>
 </g>
 <g stroke-width="0.283465">
  <path d="M72.6543 -62.2788L48.1055 -19.7591" stroke="black"/>
 </g>
 <g transform="matrix(1.000000,0.000000,0.000000,1.000000,96.211064,-96.211064)">
  <path d="M0.278954 -0M1.66376 -3.3076L1.66376 -4.40349L0.278954 -4.2939L0.278954 -3.98506C0.976339 -3.98506 1.05604 -3.91532 1.05604 -3.42715L1.05604 -0.757161C1.05604 -0.308842 0.946451 -0.308842 0.278954 -0.308842L0.278954 -0C0.667497 -0.00996264 1.13574 -0.0298879 1.41469 -0.0298879C1.8132 -0.0298879 2.28144 -0.0298879 2.67995 -0L2.67995 -0.308842L2.47073 -0.308842C1.7335 -0.308842 1.71357 -0.418431 1.71357 -0.777086L1.71357 -2.31133C1.71357 -3.29763 2.132 -4.18431 2.88917 -4.18431C2.9589 -4.18431 2.97883 -4.18431 2.99875 -4.17435C2.96887 -4.16438 2.76961 -4.04483 2.76961 -3.7858C2.76961 -3.50685 2.97883 -3.35741 3.19801 -3.35741C3.37733 -3.35741 3.6264 -3.47696 3.6264 -3.79577C3.6264 -4.11457 3.31756 -4.40349 2.88917 -4.40349C2.16189 -4.40349 1.80324 -3.73599 1.66376 -3.3076ZM1.66376 -3.3076M4.17435 -0M5.01121 -2.51059C5.07098 -3.99502 5.90785 -4.24408 6.24658 -4.24408C7.27273 -4.24408 7.37235 -2.89913 7.37235 -2.51059ZM7.37235 -2.51059M5.00125 -2.30137L7.78082 -2.30137C8 -2.30137 8.02989 -2.30137 8.02989 -2.51059C8.02989 -3.49689 7.49191 -4.46326 6.24658 -4.46326C5.09091 -4.46326 4.17435 -3.43711 4.17435 -2.19178C4.17435 -0.856787 5.22042 0.109589 6.36613 0.109589C7.58157 0.109589 8.02989 -0.996264 8.02989 -1.18555C8.02989 -1.28518 7.95019 -1.30511 7.90037 -1.30511C7.81071 -1.30511 7.79078 -1.24533 7.77086 -1.16563C7.42217 -0.139477 6.52553 -0.139477 6.4259 -0.139477C5.92777 -0.139477 5.52927 -0.438356 5.30012 -0.806974C5.00125 -1.28518 5.00125 -1.94271 5.00125 -2.30137ZM5.00125 -2.30137M8.73724 -0M11.6364 -0.757161C11.6762 -0.358655 11.9452 0.0597758 12.4134 0.0597758C12.6227 0.0597758 13.2304 -0.0797011 13.2304 -0.886675L13.2304 -1.44458L12.9813 -1.44458L12.9813 -0.886675C12.9813 -0.308842 12.7323 -0.249066 12.6227 -0.249066C12.2939 -0.249066 12.254 -0.697385 12.254 -0.747198L12.254 -2.73973C12.254 -3.15816 12.254 -3.5467 11.8954 -3.91532C11.5068 -4.30386 11.0087 -4.46326 10.5305 -4.46326C9.71357 -4.46326 9.02615 -3.99502 9.02615 -3.33748C9.02615 -3.03861 9.2254 -2.86924 9.48443 -2.86924C9.76339 -2.86924 9.94271 -3.06849 9.94271 -3.32752C9.94271 -3.44707 9.8929 -3.77584 9.43462 -3.7858C9.70361 -4.1345 10.1918 -4.24408 10.5106 -4.24408C10.9988 -4.24408 11.5666 -3.85554 11.5666 -2.96887L11.5666 -2.60025C11.0585 -2.57036 10.3611 -2.54047 9.7335 -2.24159C8.9863 -1.90286 8.73724 -1.38481 8.73724 -0.946451C8.73724 -0.139477 9.70361 0.109589 10.3313 0.109589C10.9888 0.109589 11.4471 -0.288917 11.6364 -0.757161ZM11.6364 -0.757161M11.5666 -2.39103L11.5666 -1.39477C11.5666 -0.448319 10.8493 -0.109589 10.401 -0.109589C9.91283 -0.109589 9.50436 -0.458281 9.50436 -0.956413C9.50436 -1.50436 9.92279 -2.33126 11.5666 -2.39103ZM11.5666 -2.39103M13.6289 -0M15.0635 -6.91407L13.6289 -6.80448L13.6289 -6.49564C14.3263 -6.49564 14.406 -6.4259 14.406 -5.93773L14.406 -0.757161C14.406 -0.308842 14.2964 -0.308842 13.6289 -0.308842L13.6289 -0C13.9577 -0.00996264 14.4857 -0.0298879 14.7347 -0.0298879C14.9838 -0.0298879 15.472 -0.00996264 15.8406 -0L15.8406 -0.308842C15.1731 -0.308842 15.0635 -0.308842 15.0635 -0.757161ZM15.0635 -0.757161M16.3885 -0M17.8232 -6.91407L16.3885 -6.80448L16.3885 -6.49564C17.0859 -6.49564 17.1656 -6.4259 17.1656 -5.93773L17.1656 -0.757161C17.1656 -0.308842 17.056 -0.308842 16.3885 -0.308842L16.3885 -0C16.7173 -0.00996264 17.2453 -0.0298879 17.4944 -0.0298879C17.7435 -0.0298879 18.2316 -0.00996264 18.6002 -0L18.6002 -0.308842C17.9328 -0.308842 17.8232 -0.308842 17.8232 -0.757161ZM17.8232 -0.757161M19.0087 -0M22.9539 -3.34745C23.213 -3.97509 23.721 -3.98506 23.8804 -3.98506L23.8804 -4.2939C23.6513 -4.27397 23.3624 -4.26401 23.1333 -4.26401C22.9539 -4.26401 22.4857 -4.28394 22.2665 -4.2939L22.2665 -3.98506C22.5753 -3.97509 22.7347 -3.80573 22.7347 -3.55666C22.7347 -3.45704 22.7248 -3.43711 22.675 -3.31756L21.6687 -0.86675L20.5629 -3.5467C20.523 -3.64633 20.5031 -3.68618 20.5031 -3.72603C20.5031 -3.98506 20.8717 -3.98506 21.061 -3.98506L21.061 -4.2939C20.802 -4.28394 20.1445 -4.26401 19.9751 -4.26401C19.7061 -4.26401 19.3076 -4.27397 19.0087 -4.2939L19.0087 -3.98506C19.4869 -3.98506 19.6762 -3.98506 19.8157 -3.63636L21.3101 -0C21.2603 0.129514 21.1208 0.458281 21.061 0.587796C20.8418 1.13574 20.5629 1.82316 19.9253 1.82316C19.8755 1.82316 19.6463 1.82316 19.457 1.64384C19.7659 1.60399 19.8456 1.38481 19.8456 1.2254C19.8456 0.966376 19.6563 0.806974 19.4271 0.806974C19.2279 0.806974 19.0087 0.936488 19.0087 1.23537C19.0087 1.68369 19.4271 2.04234 19.9253 2.04234C20.5529 2.04234 20.9614 1.47447 21.2005 0.9066ZM21.2005 0.9066" fill="black"/>
  <path d="M24.1307 -0M25.1867 -0.52802C25.1867 -0.816936 24.9476 -1.05604 24.6587 -1.05604C24.3698 -1.05604 24.1307 -0.816936 24.1307 -0.52802C24.1307 -0.239103 24.3698 -0 24.6587 -0C24.9476 -0 25.1867 -0.239103 25.1867 -0.52802ZM25.1867 -0.52802" fill="black"/>
 </g>
</svg>
